{"title":"Man on a Ledge 2012 Cam XviD Feel-Free","uid":7011206,"size":983227895,"categoryP":"video","categoryS":"movies","magnet":"?xt=urn:btih:b6ea0f56cdbc77522caf1f9e72ebe3b748158602&amp;dn=Man+on+a+Ledge+2012+Cam+XviD+Feel-Free&amp;tr=udp%3A%2F%2Ftracker.openbittorrent.com%3A80&amp;tr=udp%3A%2F%2Fopen.demonii.com%3A1337&amp;tr=udp%3A%2F%2Ftracker.coppersurfer.tk%3A6969&amp;tr=udp%3A%2F%2Fexodus.desync.com%3A6969","seeders":1,"leechers":0,"uploader":null,"files":8,"time":1328465660,"description":"Genre:Crime | Thriller\nLanguage:English\nIMDb: http://www.imdb.com/title/tt1568338/\nSource:NoGrp Thanks!\nEncoder:Tony &lt;a href=&quot;\nhttp://img593.imageshack.us/img593/3153/vlcsnap2012020518h35m11.png&quot; rel=&quot;nofollow&quot; target=&quot;_NEW&quot;&gt;\nhttp://img593.imageshack.us/img593/3153/vlcsnap2012020518h35m11.png&lt;/a&gt; &lt;a href=&quot;\nhttp://img10.imageshack.us/img10/5756/vlcsnap2012020518h35m16.png&quot; rel=&quot;nofollow&quot; target=&quot;_NEW&quot;&gt;\nhttp://img10.imageshack.us/img10/5756/vlcsnap2012020518h35m16.png&lt;/a&gt; &lt;a href=&quot;\nhttp://img718.imageshack.us/img718/199/vlcsnap2012020518h35m49.png&quot; rel=&quot;nofollow&quot; target=&quot;_NEW&quot;&gt;\nhttp://img718.imageshack.us/img718/199/vlcsnap2012020518h35m49.png&lt;/a&gt;\nFormat : AVI\nFormat/Info : Audio Video Interleave\nFile size : 936 MiB\nDuration : 1h 36mn\nOverall bit rate : 1 356 Kbps\n\nVideo\nID : 0\nFormat : MPEG-4 Visual\nFormat profile : Advanced Simple@L5\nFormat settings, BVOP : 2\nFormat settings, QPel : No\nFormat settings, GMC : No warppoints\nFormat settings, Matrix : Default (H.263)\nMuxing mode : Packed bitstream\nCodec ID : XVID\nCodec ID/Hint : XviD\nDuration : 1h 36mn\nBit rate : 1 218 Kbps\nWidth : 720 pixels\nHeight : 304 pixels\nDisplay aspect ratio : 2.35:1\nFrame rate : 25.000 fps\nColor space : YUV\nChroma subsampling : 4:2:0\nBit depth : 8 bits\nScan type : Progressive\nCompression mode : Lossy\nBits/(Pixel*Frame) : 0.223\nStream size : 841 MiB (90%)\nWriting library : XviD 64\n\nAudio\nID : 1\nFormat : AC-3\nFormat/Info : Audio Coding 3\nMode extension : CM (complete main)\nCodec ID : 2000\nDuration : 1h 36mn\nBit rate mode : Constant\nBit rate : 128 Kbps\nChannel(s) : 2 channels\nChannel positions : Front: L R\nSampling rate : 48.0 KHz\nBit depth : 16 bits\nCompression mode : Lossy\nStream size : 88.4 MiB (9%)\nAlignment : Split accross interleaves\nInterleave, duration : 40 ms (1.00 video frame)\nInterleave, preload duration : 500 ms\n\n\nPlot:\nAs a police psychologist works to talk down an ex-con who is threatening to jump from a Manhattan hotel rooftop, the biggest diamond heist ever committed is in motion.","torrent":{"xt":"urn:btih:b6ea0f56cdbc77522caf1f9e72ebe3b748158602","amp;dn":"Man+on+a+Ledge+2012+Cam+XviD+Feel-Free","amp;tr":["udp%3A%2F%2Ftracker.openbittorrent.com%3A80","udp%3A%2F%2Fopen.demonii.com%3A1337","udp%3A%2F%2Ftracker.coppersurfer.tk%3A6969","udp%3A%2F%2Fexodus.desync.com%3A6969"],"infoHash":"b6ea0f56cdbc77522caf1f9e72ebe3b748158602","infoHashBuffer":{"type":"Buffer","data":[182,234,15,86,205,188,119,82,44,175,31,158,114,235,227,183,72,21,134,2]},"announce":[],"urlList":[]}}